
<svg xmlns="http://www.w3.org/2000/svg" aria-hidden="true" style="position:absolute;width:0;height:0;overflow:hidden">
  <defs>
    <symbol id="icon-ac" viewBox="0 0 31 32">
      <path d="M15.082 5.139c-1.31 0-2.58.466-3.593 1.318S9.782 8.494 9.524 9.812l-.101.523a.913.913 0 0 0 .358.946.849.849 0 0 0 .669.137.865.865 0 0 0 .561-.397.901.901 0 0 0 .124-.333l.103-.521c.193-.977.733-1.845 1.516-2.437a3.85 3.85 0 0 1 5.234.534 4.086 4.086 0 0 1-.131 5.544 3.875 3.875 0 0 1-2.777 1.181H2.425c-.231 0-.453.094-.617.262a.907.907 0 0 0 0 1.266.862.862 0 0 0 .617.262H15.08c1.48-.037 2.887-.666 3.922-1.753s1.613-2.545 1.614-4.063c0-1.519-.578-2.977-1.611-4.064s-2.441-1.717-3.921-1.755zm10.033 8.056c-1.157 0-2.267.472-3.086 1.311s-1.278 1.978-1.278 3.165c0 .237.092.465.256.633s.386.262.617.262c.231 0 .453-.094.617-.262s.256-.396.256-.633c0-.531.154-1.05.441-1.492s.697-.786 1.175-.989a2.565 2.565 0 0 1 2.854.582c.366.376.615.854.716 1.375s.049 1.061-.149 1.552c-.198.491-.534.91-.964 1.205s-.937.453-1.455.453H2.424c-.231 0-.453.094-.617.262a.907.907 0 0 0 0 1.266.862.862 0 0 0 .617.262h17.018c.579.001 1.133.238 1.542.659s.637.99.636 1.584c-.001.593-.232 1.162-.642 1.581s-.965.653-1.544.652c-.521 0-1.026-.189-1.424-.533s-.665-.823-.752-1.35l-.009-.054c-.016-.119-.055-.233-.114-.336a.88.88 0 0 0-.548-.414.846.846 0 0 0-.671.115.908.908 0 0 0-.389.93l.009.054c.155.945.632 1.803 1.345 2.422s1.618.958 2.552.958c1.043 0 2.043-.423 2.781-1.179s1.154-1.78 1.155-2.849c0-.829-.244-1.599-.662-2.238h2.407c1.157 0 2.267-.472 3.086-1.311s1.278-1.978 1.278-3.165-.46-2.325-1.278-3.165a4.31 4.31 0 0 0-3.086-1.311z"/>
      <path d="m15.082 5.139.125-4.847-.063-.002h-.063l.001 4.848zM9.525 9.812l-4.759-.93-.001.008 4.76.922zm-.101.523 4.725 1.088.019-.083.016-.083-4.76-.922zm1.71.35-4.756-.94-.017.086-.014.087 4.787.768zm.103-.52zm7.769.791h4.848v-.012l-4.849.012zm-3.927 4.03v4.848h.002l-.002-4.848zm-13.527.895zm13.527.895v4.848h.061l.061-.002-.122-4.847zm7.418.895zm-20.945 3.58zm17.891.895.01-4.848h-.01v4.849zm-.009 4.476.01-4.848h-.014l.004 4.849zm-2.177-1.883-4.786.778.001.008.001.008 4.783-.793zm-.009-.054-4.807.635.009.071.012.071 4.786-.778zm-1.721.294 4.786-.778-.011-.07-.013-.069-4.761.917zm.009.053-4.786.778.001.008 4.784-.786zm3.898 3.38.002-4.848h-.003l.001 4.849zm3.936-4.028 4.848.008v-.008h-4.849zm-.662-2.238v-4.848h-8.955l4.895 7.499 4.06-2.65zM15.081.291a10.434 10.434 0 0 0-6.712 2.455l6.24 7.422a.735.735 0 0 1 .474-.18L15.081.291zM8.37 2.746a10.689 10.689 0 0 0-3.603 6.136l9.517 1.859a.995.995 0 0 1 .326-.573L8.37 2.746zM4.765 8.89l-.101.523 9.52 1.844.101-.523-9.52-1.844zm-.066.357a5.777 5.777 0 0 0-.068 2.242l9.565-1.596a3.917 3.917 0 0 1-.047 1.529l-9.45-2.175zm-.069 2.242c.124.744.394 1.461.799 2.107l8.219-5.146c.278.444.462.935.547 1.442L4.63 11.488zm.799 2.108a5.765 5.765 0 0 0 1.572 1.656l5.559-7.945c.441.309.809.7 1.087 1.144l-8.219 5.146zm1.572 1.655a5.707 5.707 0 0 0 2.126.915l1.948-9.499c.538.11 1.043.33 1.485.639l-5.559 7.945zm2.127.916a5.688 5.688 0 0 0 2.328-.008L9.444 6.674a3.988 3.988 0 0 1 1.632-.005l-1.948 9.499zm2.328-.008a5.724 5.724 0 0 0 2.12-.929L7.965 7.323a3.977 3.977 0 0 1 1.48-.648l2.012 9.486zm2.119-.929a5.718 5.718 0 0 0 1.561-1.665L6.884 8.473c.275-.446.64-.839 1.079-1.151l5.611 7.908zm1.561-1.666c.4-.649.666-1.367.785-2.112L6.346 9.918c.081-.508.263-1 .538-1.445l8.252 5.092zm.755-1.939.103-.521-9.513-1.88-.103.521 9.513 1.881zm.102-.519a.817.817 0 0 1-.315.487L9.826 3.862A8.886 8.886 0 0 0 6.48 9.223l9.512 1.884zm-.314.487a.998.998 0 0 1-.7.191l.983-9.647a8.702 8.702 0 0 0-6.135 1.724l5.852 7.732zm-.7.191a.965.965 0 0 1-.622-.31l7.261-6.427a8.738 8.738 0 0 0-5.657-2.91l-.983 9.647zm-.622-.311a.76.76 0 0 1-.199-.507l9.697-.023a8.924 8.924 0 0 0-2.237-5.897l-7.261 6.427zm-.199-.518c0-.178.068-.373.226-.535l6.945 6.768a8.932 8.932 0 0 0 2.526-6.233h-9.697zm.226-.535a.97.97 0 0 1 .693-.284l.004 9.697a8.727 8.727 0 0 0 6.247-2.645l-6.945-6.768zm.695-.284H2.424v9.697h12.655v-9.697zm-12.655 0a5.711 5.711 0 0 0-4.089 1.726l6.943 6.769a3.99 3.99 0 0 1-2.854 1.202v-9.697zm-4.088 1.726a5.755 5.755 0 0 0-1.633 4.018H6.4c0 1.009-.39 2.002-1.121 2.752l-6.943-6.769zm-1.633 4.018c0 1.484.574 2.932 1.633 4.018l6.943-6.769A3.938 3.938 0 0 1 6.4 15.882h-9.697zm1.633 4.017a5.711 5.711 0 0 0 4.089 1.726v-9.697c1.095 0 2.119.447 2.854 1.202l-6.943 6.769zm4.088 1.726h12.655v-9.697H2.424v9.697zm12.777-.001a10.456 10.456 0 0 0 7.312-3.257l-7.024-6.685a.766.766 0 0 1-.531.249l.244 9.694zm7.312-3.258c1.903-2 2.949-4.659 2.95-7.404l-9.697-.003c0 .292-.113.549-.278.722l7.024 6.685zm2.95-7.404a10.747 10.747 0 0 0-2.946-7.406l-7.028 6.681c.165.174.277.431.277.723l9.697.003zm-2.946-7.407a10.459 10.459 0 0 0-7.31-3.262l-.25 9.694c.176.005.37.079.531.249l7.028-6.681zm2.598 4.793a9.158 9.158 0 0 0-6.557 2.775l6.943 6.769a.54.54 0 0 1-.386.153V8.347zm-6.557 2.774a9.38 9.38 0 0 0-2.655 6.549H25.6c0 .06-.022.141-.099.22l-6.943-6.769zm-2.655 6.55c0 1.484.574 2.932 1.633 4.018l6.943-6.769a3.938 3.938 0 0 1 1.121 2.752h-9.697zm1.633 4.018a5.711 5.711 0 0 0 4.089 1.726v-9.697c1.095 0 2.119.447 2.854 1.202l-6.943 6.769zm4.088 1.726a5.711 5.711 0 0 0 4.089-1.726L18.77 14.92a3.986 3.986 0 0 1 2.854-1.202v9.697zm4.089-1.726a5.755 5.755 0 0 0 1.633-4.018h-9.697c0-1.009.39-2.002 1.121-2.752l6.943 6.769zm1.633-4.018c0 .401-.115.802-.345 1.155l-8.125-5.293a7.58 7.58 0 0 0-1.227 4.138h9.697zm-.345 1.155c-.23.353-.57.648-.992.827l-3.792-8.925a7.48 7.48 0 0 0-3.342 2.805L27 18.826zm-.992.826c-.423.18-.895.229-1.352.135l1.938-9.501a7.411 7.411 0 0 0-4.378.441l3.792 8.925zm-1.352.136a2.256 2.256 0 0 1-1.162-.631l6.943-6.769a7.45 7.45 0 0 0-3.843-2.101l-1.938 9.501zm-1.162-.631a2.143 2.143 0 0 1-.572-1.087l9.52-1.846a7.559 7.559 0 0 0-2.005-3.837l-6.943 6.769zm-.572-1.087a2.1 2.1 0 0 1 .115-1.187l8.991 3.631a7.594 7.594 0 0 0 .413-4.29l-9.52 1.846zm.115-1.187c.154-.381.422-.727.791-.979l5.482 7.999a7.515 7.515 0 0 0 2.719-3.389l-8.991-3.631zm.791-.979c.37-.253.817-.396 1.286-.396v9.697a7.412 7.412 0 0 0 4.195-1.302l-5.482-7.999zm1.286-.396H2.424v9.697h22.691v-9.697zm-22.691 0a5.711 5.711 0 0 0-4.089 1.726l6.943 6.769a3.99 3.99 0 0 1-2.854 1.202v-9.697zm-4.088 1.726a5.755 5.755 0 0 0-1.633 4.018H6.4c0 1.009-.39 2.001-1.121 2.752l-6.943-6.769zm-1.633 4.017c0 1.484.574 2.932 1.633 4.018L5.279 18.5A3.938 3.938 0 0 1 6.4 21.252h-9.697zm1.633 4.018a5.711 5.711 0 0 0 4.089 1.726v-9.697c1.095 0 2.119.447 2.854 1.202l-6.943 6.769zm4.088 1.726h17.018v-9.697H2.424v9.697zm17.009 0a2.699 2.699 0 0 1-1.927-.812l6.956-6.756a7.002 7.002 0 0 0-5.01-2.129l-.02 9.697zm-1.927-.812a2.577 2.577 0 0 1-.734-1.804l9.697.019a7.117 7.117 0 0 0-2.006-4.971l-6.957 6.756zm-.735-1.804a2.578 2.578 0 0 1 .742-1.801l6.929 6.783a7.117 7.117 0 0 0 2.026-4.963l-9.697-.019zm.742-1.801a2.696 2.696 0 0 1 1.931-.805l-.02 9.697a7.004 7.004 0 0 0 5.019-2.109l-6.929-6.783zm1.917-.805c.659 0 1.279.239 1.752.649l-6.345 7.333a7.022 7.022 0 0 0 4.6 1.715l-.007-9.697zm1.752.649c.47.407.763.951.858 1.523l-9.566 1.587a7.126 7.126 0 0 0 2.363 4.223l6.345-7.333zm.861 1.539-.009-.054-9.572 1.555.009.054 9.572-1.555zm.012.089a5.776 5.776 0 0 0-.722-2.126l-8.396 4.851a3.929 3.929 0 0 1-.494-1.454l9.613-1.27zm-.722-2.127a5.742 5.742 0 0 0-1.505-1.705l-5.851 7.733a3.958 3.958 0 0 1-1.04-1.177l8.396-4.851zm-1.505-1.704a5.716 5.716 0 0 0-2.082-.992l-2.316 9.416a3.984 3.984 0 0 1-1.453-.692l5.851-7.733zm-2.083-.992a5.705 5.705 0 0 0-2.32-.084l1.631 9.559a4 4 0 0 1-1.627-.059l2.316-9.416zm-2.32-.084a5.718 5.718 0 0 0-2.152.842l5.286 8.129a4 4 0 0 1-1.504.588l-1.631-9.559zm-2.152.842a5.72 5.72 0 0 0-1.626 1.599l8.038 5.425a3.979 3.979 0 0 1-1.125 1.106l-5.286-8.129zm-1.626 1.598a5.758 5.758 0 0 0-.87 2.075l9.503 1.929a3.94 3.94 0 0 1-.596 1.421l-8.038-5.425zm-.869 2.075a5.748 5.748 0 0 0-.011 2.237l9.522-1.833a3.933 3.933 0 0 1-.008 1.525l-9.503-1.929zm-.036 2.098.009.054 9.572-1.555-.009-.054-9.572 1.555zm.01.062a8.928 8.928 0 0 0 2.953 5.299l6.353-7.326c.155.134.237.3.262.455l-9.569 1.571zm2.953 5.299a8.735 8.735 0 0 0 5.73 2.143l-.002-9.697c.247 0 .467.09.625.227l-6.353 7.326zm5.727 2.144a8.736 8.736 0 0 0 6.251-2.639l-6.935-6.777a.967.967 0 0 1 .689-.281l-.004 9.697zm6.25-2.639a8.934 8.934 0 0 0 2.536-6.229l-9.697-.017a.76.76 0 0 1 .225-.531l6.935 6.777zm2.536-6.238c0-1.793-.531-3.48-1.45-4.888l-8.12 5.3a.764.764 0 0 1-.127-.412h9.697zm-5.51 2.611h2.407v-9.697h-2.407v9.697zm2.407 0a9.158 9.158 0 0 0 6.557-2.775l-6.943-6.769a.54.54 0 0 1 .386-.153v9.697zm6.557-2.775a9.38 9.38 0 0 0 2.655-6.549H24.63c0-.06.022-.141.099-.22l6.943 6.769zm2.655-6.549a9.379 9.379 0 0 0-2.655-6.549l-6.943 6.769a.316.316 0 0 1-.099-.22h9.697zm-2.655-6.55a9.158 9.158 0 0 0-6.557-2.775v9.697a.54.54 0 0 1-.386-.153l6.943-6.769z"/>
    </symbol>
    <symbol id="icon-automatic" viewBox="0 0 32 32">
      <path stroke-linecap="round" stroke-linejoin="round" stroke-width="2.4" d="M22.667 14.667h2a2 2 0 0 0 0-4h-2v6.667m0 5.333V28H24a2.668 2.668 0 0 0 0-5.334h-1.333zM4 6.667a2.668 2.668 0 1 0 5.336 0 2.668 2.668 0 0 0-5.336 0z"/>
      <path stroke-linecap="round" stroke-linejoin="round" stroke-width="2.4" d="M6.667 9.333v4a1.335 1.335 0 0 0 1.334 1.334h4m-.001 0V24a1.335 1.335 0 0 0 1.334 1.334h4M12 14.667h5.333"/>
    </symbol>
    <symbol id="icon-beds" viewBox="0 0 32 32">
      <path stroke-linecap="round" stroke-linejoin="round" stroke-width="2.24" d="M3 26v-7a4.012 4.012 0 0 1 4-4h18a4.012 4.012 0 0 1 4 4v7m-5-11H6V8.5A2.504 2.504 0 0 1 8.5 6h15A2.504 2.504 0 0 1 26 8.5V15h-2z"/>
      <path stroke-linecap="round" stroke-linejoin="round" stroke-width="2.24" d="M3 26v-.5A1.504 1.504 0 0 1 4.5 24h23a1.504 1.504 0 0 1 1.5 1.5v.5M7 15v-1a2.002 2.002 0 0 1 2-2h5a2.002 2.002 0 0 1 2 2m0 0v1m0-1a2.008 2.008 0 0 1 2-2h5a2.002 2.002 0 0 1 2 2v1"/>
    </symbol>
    <symbol id="icon-kitchen" viewBox="0 0 32 32">
      <path stroke-linecap="round" stroke-linejoin="round" stroke-width="2.4" d="M25.333 20V4c-6.421 6.125-6.697 11.092-6.667 16h6.667zm0 0v8H24v-4M10.667 5.333V28m-4-22.667v4a4.003 4.003 0 0 0 4 4 4.003 4.003 0 0 0 4-4v-4"/>
    </symbol>
    <symbol id="icon-petrol" viewBox="0 0 32 32">
      <path d="m26.36 9.64.013-.013-4.96-4.96L20 6.08l2.813 2.813a3.324 3.324 0 0 0-1.17 5.464 3.333 3.333 0 0 0 2.357.976c.48 0 .92-.107 1.333-.28v9.613a1.335 1.335 0 0 1-2.277.943 1.335 1.335 0 0 1-.391-.943v-6a2.668 2.668 0 0 0-2.667-2.667h-1.333V6.666a2.668 2.668 0 0 0-2.667-2.667h-8a2.668 2.668 0 0 0-2.667 2.667v21.333h13.333v-10h2v6.667a3.333 3.333 0 1 0 6.667-.001V11.998c0-.92-.373-1.76-.973-2.36zM16 18v7.333H8V16h8v2zm0-4.667H8V6.666h8v6.667zm8 0a1.333 1.333 0 1 1-.002-2.665A1.333 1.333 0 0 1 24 13.333z"/>
    </symbol>
    <symbol id="icon-users" viewBox="0 0 32 32">
      <path d="M9.067 24.133h-4.4c-.267 0-.4-.133-.533-.267s-.267-.4-.133-.667c.8-2.267 2.8-3.6 5.067-3.6 2.8 0 5.067-2.4 5.067-5.2s-2.267-5.467-5.067-5.467-5.067 2.4-5.067 5.333a5.69 5.69 0 0 0 1.333 3.6c-1.733.933-3.067 2.4-3.867 4.4-.267.933-.133 2.133.533 3.067s1.6 1.467 2.667 1.467h4.4c.8 0 1.333-.533 1.333-1.333s-.533-1.333-1.333-1.333zm-2.4-9.866c0-1.467 1.067-2.533 2.4-2.533s2.4 1.2 2.4 2.533c0 1.467-1.067 2.533-2.4 2.533s-2.4-1.2-2.4-2.533z"/>
      <path d="M30.533 21.467c-.933-2.533-2.8-4.4-4.933-5.467 1.2-1.067 1.867-2.667 1.867-4.533C27.467 8 24.8 5.2 21.6 5.2s-5.867 2.8-5.867 6.267A6.35 6.35 0 0 0 17.6 16c-2.133 1.067-4 2.933-4.933 5.467-.667 1.2-.4 2.533.267 3.6s1.867 1.6 3.067 1.6h11.067c1.2 0 2.4-.667 3.067-1.6.8-1.067.933-2.4.4-3.6zM18.267 11.6c0-2 1.467-3.6 3.2-3.6s3.2 1.6 3.2 3.6-1.467 3.6-3.2 3.6-3.2-1.733-3.2-3.6zm9.6 12c-.133.133-.4.533-.8.533H16c-.533 0-.8-.4-.8-.533-.133-.133-.4-.667-.133-1.2 1.067-2.8 3.733-4.667 6.533-4.667s5.467 1.867 6.533 4.667c.133.533-.133 1.067-.267 1.2z"/>
    </symbol>
    <symbol id="icon-heart" viewBox="0 0 32 32">
      <path stroke-linecap="round" stroke-linejoin="round" stroke-width="3.067" d="M27.787 6.147a7.326 7.326 0 0 0-10.373 0L16.001 7.56l-1.413-1.413a7.333 7.333 0 0 0-10.374 0 7.333 7.333 0 0 0 0 10.374l11.787 11.787 11.787-11.787a7.345 7.345 0 0 0 2.15-5.187 7.33 7.33 0 0 0-2.15-5.187z"/>
    </symbol>
    <symbol id="icon-acf" viewBox="0 0 31 32">
      <path d="M15.082 5.139c-1.31 0-2.58.466-3.593 1.318S9.782 8.494 9.524 9.812l-.101.523a.913.913 0 0 0 .358.946.849.849 0 0 0 .669.137.865.865 0 0 0 .561-.397.901.901 0 0 0 .124-.333l.103-.521c.193-.977.733-1.845 1.516-2.437a3.85 3.85 0 0 1 5.234.534 4.086 4.086 0 0 1-.131 5.544 3.875 3.875 0 0 1-2.777 1.181H2.425c-.231 0-.453.094-.617.262a.907.907 0 0 0 0 1.266.862.862 0 0 0 .617.262H15.08c1.48-.037 2.887-.666 3.922-1.753s1.613-2.545 1.614-4.063c0-1.519-.578-2.977-1.611-4.064s-2.441-1.717-3.921-1.755zm10.033 8.056c-1.157 0-2.267.472-3.086 1.311s-1.278 1.978-1.278 3.165c0 .237.092.465.256.633s.386.262.617.262c.231 0 .453-.094.617-.262s.256-.396.256-.633c0-.531.154-1.05.441-1.492s.697-.786 1.175-.989a2.565 2.565 0 0 1 2.854.582c.366.376.615.854.716 1.375s.049 1.061-.149 1.552c-.198.491-.534.91-.964 1.205s-.937.453-1.455.453H2.424c-.231 0-.453.094-.617.262a.907.907 0 0 0 0 1.266.862.862 0 0 0 .617.262h17.018c.579.001 1.133.238 1.542.659s.637.99.636 1.584c-.001.593-.232 1.162-.642 1.581s-.965.653-1.544.652c-.521 0-1.026-.189-1.424-.533s-.665-.823-.752-1.35l-.009-.054c-.016-.119-.055-.233-.114-.336a.88.88 0 0 0-.548-.414.846.846 0 0 0-.671.115.908.908 0 0 0-.389.93l.009.054c.155.945.632 1.803 1.345 2.422s1.618.958 2.552.958c1.043 0 2.043-.423 2.781-1.179s1.154-1.78 1.155-2.849c0-.829-.244-1.599-.662-2.238h2.407c1.157 0 2.267-.472 3.086-1.311s1.278-1.978 1.278-3.165-.46-2.325-1.278-3.165a4.31 4.31 0 0 0-3.086-1.311z"/>
      <path d="m15.082 5.139.125-4.847-.063-.002h-.063l.001 4.848zM9.525 9.812l-4.759-.93-.001.008 4.76.922zm-.101.523 4.725 1.088.019-.083.016-.083-4.76-.922zm1.71.35-4.756-.94-.017.086-.014.087 4.787.768zm.103-.52zm7.769.791h4.848v-.012l-4.849.012zm-3.927 4.03v4.848h.002l-.002-4.848zm-13.527.895zm13.527.895v4.848h.061l.061-.002-.122-4.847zm7.418.895zm-20.945 3.58zm17.891.895.01-4.848h-.01v4.849zm-.009 4.476.01-4.848h-.014l.004 4.849zm-2.177-1.883-4.786.778.001.008.001.008 4.783-.793zm-.009-.054-4.807.635.009.071.012.071 4.786-.778zm-1.721.294 4.786-.778-.011-.07-.013-.069-4.761.917zm.009.053-4.786.778.001.008 4.784-.786zm3.898 3.38.002-4.848h-.003l.001 4.849zm3.936-4.028 4.848.008v-.008h-4.849zm-.662-2.238v-4.848h-8.955l4.895 7.499 4.06-2.65zM15.081.291a10.434 10.434 0 0 0-6.712 2.455l6.24 7.422a.735.735 0 0 1 .474-.18L15.081.291zM8.37 2.746a10.689 10.689 0 0 0-3.603 6.136l9.517 1.859a.995.995 0 0 1 .326-.573L8.37 2.746zM4.765 8.89l-.101.523 9.52 1.844.101-.523-9.52-1.844zm-.066.357a5.777 5.777 0 0 0-.068 2.242l9.565-1.596a3.917 3.917 0 0 1-.047 1.529l-9.45-2.175zm-.069 2.242c.124.744.394 1.461.799 2.107l8.219-5.146c.278.444.462.935.547 1.442L4.63 11.488zm.799 2.108a5.765 5.765 0 0 0 1.572 1.656l5.559-7.945c.441.309.809.7 1.087 1.144l-8.219 5.146zm1.572 1.655a5.707 5.707 0 0 0 2.126.915l1.948-9.499c.538.11 1.043.33 1.485.639l-5.559 7.945zm2.127.916a5.688 5.688 0 0 0 2.328-.008L9.444 6.674a3.988 3.988 0 0 1 1.632-.005l-1.948 9.499zm2.328-.008a5.724 5.724 0 0 0 2.12-.929L7.965 7.323a3.977 3.977 0 0 1 1.48-.648l2.012 9.486zm2.119-.929a5.718 5.718 0 0 0 1.561-1.665L6.884 8.473c.275-.446.64-.839 1.079-1.151l5.611 7.908zm1.561-1.666c.4-.649.666-1.367.785-2.112L6.346 9.918c.081-.508.263-1 .538-1.445l8.252 5.092zm.755-1.939.103-.521-9.513-1.88-.103.521 9.513 1.881zm.102-.519a.817.817 0 0 1-.315.487L9.826 3.862A8.886 8.886 0 0 0 6.48 9.223l9.512 1.884zm-.314.487a.998.998 0 0 1-.7.191l.983-9.647a8.702 8.702 0 0 0-6.135 1.724l5.852 7.732zm-.7.191a.965.965 0 0 1-.622-.31l7.261-6.427a8.738 8.738 0 0 0-5.657-2.91l-.983 9.647zm-.622-.311a.76.76 0 0 1-.199-.507l9.697-.023a8.924 8.924 0 0 0-2.237-5.897l-7.261 6.427zm-.199-.518c0-.178.068-.373.226-.535l6.945 6.768a8.932 8.932 0 0 0 2.526-6.233h-9.697zm.226-.535a.97.97 0 0 1 .693-.284l.004 9.697a8.727 8.727 0 0 0 6.247-2.645l-6.945-6.768zm.695-.284H2.424v9.697h12.655v-9.697zm-12.655 0a5.711 5.711 0 0 0-4.089 1.726l6.943 6.769a3.99 3.99 0 0 1-2.854 1.202v-9.697zm-4.088 1.726a5.755 5.755 0 0 0-1.633 4.018H6.4c0 1.009-.39 2.002-1.121 2.752l-6.943-6.769zm-1.633 4.018c0 1.484.574 2.932 1.633 4.018l6.943-6.769A3.938 3.938 0 0 1 6.4 15.882h-9.697zm1.633 4.017a5.711 5.711 0 0 0 4.089 1.726v-9.697c1.095 0 2.119.447 2.854 1.202l-6.943 6.769zm4.088 1.726h12.655v-9.697H2.424v9.697zm12.777-.001a10.456 10.456 0 0 0 7.312-3.257l-7.024-6.685a.766.766 0 0 1-.531.249l.244 9.694zm7.312-3.258c1.903-2 2.949-4.659 2.95-7.404l-9.697-.003c0 .292-.113.549-.278.722l7.024 6.685zm2.95-7.404a10.747 10.747 0 0 0-2.946-7.406l-7.028 6.681c.165.174.277.431.277.723l9.697.003zm-2.946-7.407a10.459 10.459 0 0 0-7.31-3.262l-.25 9.694c.176.005.37.079.531.249l7.028-6.681zm2.598 4.793a9.158 9.158 0 0 0-6.557 2.775l6.943 6.769a.54.54 0 0 1-.386.153V8.347zm-6.557 2.774a9.38 9.38 0 0 0-2.655 6.549H25.6c0 .06-.022.141-.099.22l-6.943-6.769zm-2.655 6.55c0 1.484.574 2.932 1.633 4.018l6.943-6.769a3.938 3.938 0 0 1 1.121 2.752h-9.697zm1.633 4.018a5.711 5.711 0 0 0 4.089 1.726v-9.697c1.095 0 2.119.447 2.854 1.202l-6.943 6.769zm4.088 1.726a5.711 5.711 0 0 0 4.089-1.726L18.77 14.92a3.986 3.986 0 0 1 2.854-1.202v9.697zm4.089-1.726a5.755 5.755 0 0 0 1.633-4.018h-9.697c0-1.009.39-2.002 1.121-2.752l6.943 6.769zm1.633-4.018c0 .401-.115.802-.345 1.155l-8.125-5.293a7.58 7.58 0 0 0-1.227 4.138h9.697zm-.345 1.155c-.23.353-.57.648-.992.827l-3.792-8.925a7.48 7.48 0 0 0-3.342 2.805L27 18.826zm-.992.826c-.423.18-.895.229-1.352.135l1.938-9.501a7.411 7.411 0 0 0-4.378.441l3.792 8.925zm-1.352.136a2.256 2.256 0 0 1-1.162-.631l6.943-6.769a7.45 7.45 0 0 0-3.843-2.101l-1.938 9.501zm-1.162-.631a2.143 2.143 0 0 1-.572-1.087l9.52-1.846a7.559 7.559 0 0 0-2.005-3.837l-6.943 6.769zm-.572-1.087a2.1 2.1 0 0 1 .115-1.187l8.991 3.631a7.594 7.594 0 0 0 .413-4.29l-9.52 1.846zm.115-1.187c.154-.381.422-.727.791-.979l5.482 7.999a7.515 7.515 0 0 0 2.719-3.389l-8.991-3.631zm.791-.979c.37-.253.817-.396 1.286-.396v9.697a7.412 7.412 0 0 0 4.195-1.302l-5.482-7.999zm1.286-.396H2.424v9.697h22.691v-9.697zm-22.691 0a5.711 5.711 0 0 0-4.089 1.726l6.943 6.769a3.99 3.99 0 0 1-2.854 1.202v-9.697zm-4.088 1.726a5.755 5.755 0 0 0-1.633 4.018H6.4c0 1.009-.39 2.001-1.121 2.752l-6.943-6.769zm-1.633 4.017c0 1.484.574 2.932 1.633 4.018L5.279 18.5A3.938 3.938 0 0 1 6.4 21.252h-9.697zm1.633 4.018a5.711 5.711 0 0 0 4.089 1.726v-9.697c1.095 0 2.119.447 2.854 1.202l-6.943 6.769zm4.088 1.726h17.018v-9.697H2.424v9.697zm17.009 0a2.699 2.699 0 0 1-1.927-.812l6.956-6.756a7.002 7.002 0 0 0-5.01-2.129l-.02 9.697zm-1.927-.812a2.577 2.577 0 0 1-.734-1.804l9.697.019a7.117 7.117 0 0 0-2.006-4.971l-6.957 6.756zm-.735-1.804a2.578 2.578 0 0 1 .742-1.801l6.929 6.783a7.117 7.117 0 0 0 2.026-4.963l-9.697-.019zm.742-1.801a2.696 2.696 0 0 1 1.931-.805l-.02 9.697a7.004 7.004 0 0 0 5.019-2.109l-6.929-6.783zm1.917-.805c.659 0 1.279.239 1.752.649l-6.345 7.333a7.022 7.022 0 0 0 4.6 1.715l-.007-9.697zm1.752.649c.47.407.763.951.858 1.523l-9.566 1.587a7.126 7.126 0 0 0 2.363 4.223l6.345-7.333zm.861 1.539-.009-.054-9.572 1.555.009.054 9.572-1.555zm.012.089a5.776 5.776 0 0 0-.722-2.126l-8.396 4.851a3.929 3.929 0 0 1-.494-1.454l9.613-1.27zm-.722-2.127a5.742 5.742 0 0 0-1.505-1.705l-5.851 7.733a3.958 3.958 0 0 1-1.04-1.177l8.396-4.851zm-1.505-1.704a5.716 5.716 0 0 0-2.082-.992l-2.316 9.416a3.984 3.984 0 0 1-1.453-.692l5.851-7.733zm-2.083-.992a5.705 5.705 0 0 0-2.32-.084l1.631 9.559a4 4 0 0 1-1.627-.059l2.316-9.416zm-2.32-.084a5.718 5.718 0 0 0-2.152.842l5.286 8.129a4 4 0 0 1-1.504.588l-1.631-9.559zm-2.152.842a5.72 5.72 0 0 0-1.626 1.599l8.038 5.425a3.979 3.979 0 0 1-1.125 1.106l-5.286-8.129zm-1.626 1.598a5.758 5.758 0 0 0-.87 2.075l9.503 1.929a3.94 3.94 0 0 1-.596 1.421l-8.038-5.425zm-.869 2.075a5.748 5.748 0 0 0-.011 2.237l9.522-1.833a3.933 3.933 0 0 1-.008 1.525l-9.503-1.929zm-.036 2.098.009.054 9.572-1.555-.009-.054-9.572 1.555zm.01.062a8.928 8.928 0 0 0 2.953 5.299l6.353-7.326c.155.134.237.3.262.455l-9.569 1.571zm2.953 5.299a8.735 8.735 0 0 0 5.73 2.143l-.002-9.697c.247 0 .467.09.625.227l-6.353 7.326zm5.727 2.144a8.736 8.736 0 0 0 6.251-2.639l-6.935-6.777a.967.967 0 0 1 .689-.281l-.004 9.697zm6.25-2.639a8.934 8.934 0 0 0 2.536-6.229l-9.697-.017a.76.76 0 0 1 .225-.531l6.935 6.777zm2.536-6.238c0-1.793-.531-3.48-1.45-4.888l-8.12 5.3a.764.764 0 0 1-.127-.412h9.697zm-5.51 2.611h2.407v-9.697h-2.407v9.697zm2.407 0a9.158 9.158 0 0 0 6.557-2.775l-6.943-6.769a.54.54 0 0 1 .386-.153v9.697zm6.557-2.775a9.38 9.38 0 0 0 2.655-6.549H24.63c0-.06.022-.141.099-.22l6.943 6.769zm2.655-6.549a9.379 9.379 0 0 0-2.655-6.549l-6.943 6.769a.316.316 0 0 1-.099-.22h9.697zm-2.655-6.55a9.158 9.158 0 0 0-6.557-2.775v9.697a.54.54 0 0 1-.386-.153l6.943-6.769z"/>
    </symbol>
    <symbol id="icon-alcovevan" viewBox="0 0 44 32">
      <path d="M2.518 2.289h11.981a.382.382 0 0 0 .268-.109l1.151-1.123A1.784 1.784 0 0 1 17.17.551h18.168c.846 0 1.631.41 2.101 1.097l2.177 3.186c.309.452.337 1.031.074 1.51s-.773.777-1.33.777h-9.364v.923h4.796c1.271 0 2.415.737 2.914 1.878l2.808 6.42 2.46.96c1.314.513 2.162 1.735 2.162 3.116v5.946c0 .887-.74 1.608-1.649 1.608h-2.862c-.333 1.968-2.089 3.475-4.2 3.475s-3.867-1.507-4.2-3.475H15.58c-.333 1.968-2.09 3.475-4.2 3.475s-3.867-1.507-4.2-3.475H1.463c-.808 0-1.466-.641-1.466-1.43V4.745c0-1.355 1.129-2.457 2.518-2.457zm32.909 27.802c1.581 0 2.867-1.254 2.867-2.796s-1.286-2.796-2.867-2.796-2.866 1.254-2.866 2.796 1.286 2.796 2.866 2.796zm-6.429-3.475h2.228l.02-.101.013-.068c.011-.053.024-.106.037-.159l.008-.033c.017-.063.035-.126.055-.188l.018-.054c.014-.043.029-.087.045-.13l.027-.068a2.18 2.18 0 0 1 .045-.112l.032-.072c.016-.035.031-.07.048-.104l.037-.073c.017-.033.034-.067.052-.099l.04-.072c.018-.033.038-.065.057-.097a4.052 4.052 0 0 1 .106-.165l.043-.063.075-.102.039-.053c.035-.045.07-.087.105-.13l.016-.02c.041-.049.084-.097.127-.143.013-.015.027-.028.041-.042l.093-.096.054-.051.087-.081.06-.052.087-.074.064-.05.09-.069.066-.048.093-.065.067-.044c.033-.022.067-.042.1-.063l.066-.04c.037-.022.075-.042.112-.063l.057-.032.163-.082.013-.006c.059-.028.119-.054.179-.079l.059-.023c.041-.016.083-.033.125-.048l.072-.025.116-.038.079-.023.114-.032.082-.021.114-.026.084-.017a4.141 4.141 0 0 1 .325-.049l.08-.009c.046-.004.092-.008.138-.01.023-.002.045-.004.068-.004a3.644 3.644 0 0 1 .418 0l.068.004.138.01c.027.002.053.006.08.009l.124.016.084.013.117.02a2.498 2.498 0 0 1 .198.043l.082.021.114.032.079.023.116.038.072.025.125.048.059.023c.06.025.12.052.179.079l.013.006c.055.026.109.053.163.082l.057.032c.038.021.076.041.112.063l.066.04c.033.021.067.041.1.063l.067.044.094.065.066.048.09.069.063.05.087.074.06.052.087.081.054.051c.032.031.062.064.093.096l.041.042c.043.047.086.094.127.143l.016.02c.036.043.071.086.105.13l.039.053a2.425 2.425 0 0 1 .118.165l.064.097.042.068c.02.032.039.065.057.097l.039.072a2.354 2.354 0 0 1 .089.172l.048.104.032.072c.016.037.031.074.045.112l.027.068c.016.043.031.086.045.13l.018.054c.019.062.038.124.054.188l.008.033c.013.053.026.105.037.159l.013.068c.007.034.014.067.019.101h2.861a.254.254 0 0 0 .257-.251v-2.844H41.66v-1.358h1.085v-1.744c0-.822-.505-1.55-1.287-1.855l-2.604-1.016h-9.857v9.068zm0-10.426h8.938l-2.508-5.735a1.775 1.775 0 0 0-1.634-1.053h-4.796v6.787zM11.382 30.091c1.581 0 2.866-1.254 2.866-2.796s-1.286-2.796-2.866-2.796c-.05 0-.099.001-.148.004-1.317.065-2.402 1.002-2.661 2.23l-.026.138a2.874 2.874 0 0 0-.033.425c0 1.542 1.286 2.796 2.867 2.796zm-9.991-7.928h1.085v1.358H1.391v3.023c0 .04.033.072.074.072h5.716l.019-.1.013-.07c.011-.052.023-.104.037-.155l.009-.036c.017-.063.035-.125.055-.187l.019-.056c.014-.043.029-.086.045-.128l.027-.07c.014-.037.029-.074.045-.11l.033-.074c.016-.034.031-.069.048-.103l.037-.074.052-.099.04-.072.057-.097.042-.069a4.005 4.005 0 0 1 .106-.16l.073-.1.041-.055c.033-.043.067-.085.102-.127l.018-.022a4.45 4.45 0 0 1 .169-.186c.031-.032.061-.064.092-.094l.055-.052.086-.08.06-.053.087-.073.064-.052.089-.068.066-.048.093-.065.067-.045c.033-.022.066-.042.1-.062l.066-.04c.037-.022.074-.042.112-.063l.058-.032c.053-.028.106-.055.161-.08l.014-.007c.059-.028.119-.054.179-.079l.059-.023c.042-.016.083-.033.125-.048l.073-.025.115-.038a2.35 2.35 0 0 1 .079-.023l.114-.032.082-.021.114-.026.084-.017.117-.02a4.654 4.654 0 0 1 .288-.038c.046-.004.092-.008.138-.01.023-.002.045-.004.068-.004a3.644 3.644 0 0 1 .418 0l.068.004.138.01c.027.002.054.006.08.009a4.654 4.654 0 0 1 .207.029l.118.02a2.498 2.498 0 0 1 .198.043l.082.021.114.032.079.023.115.038.073.025.125.048.059.023a5.714 5.714 0 0 1 .354.166l.058.032c.037.021.075.041.112.063l.066.04.1.062.067.045c.031.021.062.042.093.065l.066.048.089.068.064.052a3.052 3.052 0 0 1 .147.125l.087.081.054.051.093.095.041.043c.043.047.086.094.127.143l.017.021a4.5 4.5 0 0 1 .104.129l.04.053c.025.034.05.067.074.102l.043.064a2.007 2.007 0 0 1 .105.165c.02.032.039.065.057.097l.04.072.053.099.036.073.048.104.032.072a3.745 3.745 0 0 1 .118.311c.006.018.013.035.018.053a4.048 4.048 0 0 1 .133.549h12.024V6.444c0-.375.312-.679.696-.679h10.059c.017 0 .07 0 .103-.06s.004-.103-.006-.116l-2.177-3.186a1.14 1.14 0 0 0-.943-.492H17.171a.38.38 0 0 0-.268.109l-1.151 1.123a1.782 1.782 0 0 1-1.252.506H2.519c-.621 0-1.127.493-1.127 1.099v17.417z"/>
      <path d="M19.422 7.501h4.401c.889 0 1.612.705 1.612 1.573v14.527a.688.688 0 0 1-.696.679h-6.234a.688.688 0 0 1-.696-.679V9.074c-.001-.868.722-1.573 1.612-1.573zm-.221 15.421h4.842V14.94h-4.842v7.982zm0-9.339h4.842V9.075a.219.219 0 0 0-.221-.216h-4.401a.219.219 0 0 0-.221.216v4.508h.001zM5.345 7.501h8.51c.983 0 1.784.781 1.784 1.74V13.2c0 .959-.8 1.74-1.784 1.74H5.344c-.984 0-1.784-.781-1.784-1.74V9.241c.001-.959.801-1.74 1.784-1.74zM4.952 13.2c0 .211.176.383.392.383h8.51a.388.388 0 0 0 .392-.383V9.241a.388.388 0 0 0-.392-.383H5.343a.388.388 0 0 0-.392.383V13.2h.001z"/>
    </symbol>
    <symbol id="icon-automaticf" viewBox="0 0 32 32">
      <path stroke-linecap="round" stroke-linejoin="round" stroke-width="1.746" d="M22.465 14.707h1.939a1.937 1.937 0 0 0 1.939-1.939 1.937 1.937 0 0 0-1.939-1.939h-1.939v6.465m0 5.171v5.172h1.293a2.588 2.588 0 0 0 2.585-2.586 2.588 2.588 0 0 0-2.585-2.585h-1.293zM4.364 6.949a2.582 2.582 0 0 0 2.585 2.585 2.582 2.582 0 0 0 2.585-2.585 2.582 2.582 0 0 0-2.585-2.585 2.582 2.582 0 0 0-2.585 2.585zM6.95 9.535v3.879a1.295 1.295 0 0 0 1.293 1.293h3.879m-.001 0v9.05a1.295 1.295 0 0 0 1.293 1.293h3.879m-5.172-10.343h5.172"/>
    </symbol>
    <symbol id="icon-fullvan" viewBox="0 0 44 32">
      <path d="M2.518 2.289h11.981a.382.382 0 0 0 .268-.109l1.151-1.123A1.784 1.784 0 0 1 17.17.551h18.168c.846 0 1.631.41 2.101 1.097l2.177 3.186c.309.452.337 1.031.074 1.51s-.773.777-1.33.777h-9.364v.923h4.796c1.271 0 2.415.737 2.914 1.878l2.808 6.42 2.46.96c1.314.513 2.162 1.735 2.162 3.116v5.946c0 .887-.74 1.608-1.649 1.608h-2.862c-.333 1.968-2.089 3.475-4.2 3.475s-3.867-1.507-4.2-3.475H15.58c-.333 1.968-2.09 3.475-4.2 3.475s-3.867-1.507-4.2-3.475H1.463c-.808 0-1.466-.641-1.466-1.43V4.745c0-1.355 1.129-2.457 2.518-2.457zm32.909 27.802c1.581 0 2.867-1.254 2.867-2.796s-1.286-2.796-2.867-2.796-2.866 1.254-2.866 2.796 1.286 2.796 2.866 2.796zm-6.429-3.475h2.228l.02-.101.013-.068c.011-.053.024-.106.037-.159l.008-.033c.017-.063.035-.126.055-.188l.018-.054c.014-.043.029-.087.045-.13l.027-.068a2.18 2.18 0 0 1 .045-.112l.032-.072c.016-.035.031-.07.048-.104l.037-.073c.017-.033.034-.067.052-.099l.04-.072c.018-.033.038-.065.057-.097a4.052 4.052 0 0 1 .106-.165l.043-.063.075-.102.039-.053c.035-.045.07-.087.105-.13l.016-.02c.041-.049.084-.097.127-.143.013-.015.027-.028.041-.042l.093-.096.054-.051.087-.081.06-.052.087-.074.064-.05.09-.069.066-.048.093-.065.067-.044c.033-.022.067-.042.1-.063l.066-.04c.037-.022.075-.042.112-.063l.057-.032.163-.082.013-.006c.059-.028.119-.054.179-.079l.059-.023c.041-.016.083-.033.125-.048l.072-.025.116-.038.079-.023.114-.032.082-.021.114-.026.084-.017a4.141 4.141 0 0 1 .325-.049l.08-.009c.046-.004.092-.008.138-.01.023-.002.045-.004.068-.004a3.644 3.644 0 0 1 .418 0l.068.004.138.01c.027.002.053.006.08.009l.124.016.084.013.117.02a2.498 2.498 0 0 1 .198.043l.082.021.114.032.079.023.116.038.072.025.125.048.059.023c.06.025.12.052.179.079l.013.006c.055.026.109.053.163.082l.057.032c.038.021.076.041.112.063l.066.04c.033.021.067.041.1.063l.067.044.094.065.066.048.09.069.063.05.087.074.06.052.087.081.054.051c.032.031.062.064.093.096l.041.042c.043.047.086.094.127.143l.016.02c.036.043.071.086.105.13l.039.053a2.425 2.425 0 0 1 .118.165l.064.097.042.068c.02.032.039.065.057.097l.039.072a2.354 2.354 0 0 1 .089.172l.048.104.032.072c.016.037.031.074.045.112l.027.068c.016.043.031.086.045.13l.018.054c.019.062.038.124.054.188l.008.033c.013.053.026.105.037.159l.013.068c.007.034.014.067.019.101h2.861a.254.254 0 0 0 .257-.251v-2.844H41.66v-1.358h1.085v-1.744c0-.822-.505-1.55-1.287-1.855l-2.604-1.016h-9.857v9.068zm0-10.426h8.938l-2.508-5.735a1.775 1.775 0 0 0-1.634-1.053h-4.796v6.787zM11.382 30.091c1.581 0 2.866-1.254 2.866-2.796s-1.286-2.796-2.866-2.796c-.05 0-.099.001-.148.004-1.317.065-2.402 1.002-2.661 2.23l-.026.138a2.874 2.874 0 0 0-.033.425c0 1.542 1.286 2.796 2.867 2.796zm-9.991-7.928h1.085v1.358H1.391v3.023c0 .04.033.072.074.072h5.716l.019-.1.013-.07c.011-.052.023-.104.037-.155l.009-.036c.017-.063.035-.125.055-.187l.019-.056c.014-.043.029-.086.045-.128l.027-.07c.014-.037.029-.074.045-.11l.033-.074c.016-.034.031-.069.048-.103l.037-.074.052-.099.04-.072.057-.097.042-.069a4.005 4.005 0 0 1 .106-.16l.073-.1.041-.055c.033-.043.067-.085.102-.127l.018-.022a4.45 4.45 0 0 1 .169-.186c.031-.032.061-.064.092-.094l.055-.052.086-.08.06-.053.087-.073.064-.052.089-.068.066-.048.093-.065.067-.045c.033-.022.066-.042.1-.062l.066-.04c.037-.022.074-.042.112-.063l.058-.032c.053-.028.106-.055.161-.08l.014-.007c.059-.028.119-.054.179-.079l.059-.023c.042-.016.083-.033.125-.048l.073-.025.115-.038a2.35 2.35 0 0 1 .079-.023l.114-.032.082-.021.114-.026.084-.017.117-.02a4.654 4.654 0 0 1 .288-.038c.046-.004.092-.008.138-.01.023-.002.045-.004.068-.004a3.644 3.644 0 0 1 .418 0l.068.004.138.01c.027.002.054.006.08.009a4.654 4.654 0 0 1 .207.029l.118.02a2.498 2.498 0 0 1 .198.043l.082.021.114.032.079.023.115.038.073.025.125.048.059.023a5.714 5.714 0 0 1 .354.166l.058.032c.037.021.075.041.112.063l.066.04.1.062.067.045c.031.021.062.042.093.065l.066.048.089.068.064.052a3.052 3.052 0 0 1 .147.125l.087.081.054.051.093.095.041.043c.043.047.086.094.127.143l.017.021a4.5 4.5 0 0 1 .104.129l.04.053c.025.034.05.067.074.102l.043.064a2.007 2.007 0 0 1 .105.165c.02.032.039.065.057.097l.04.072.053.099.036.073.048.104.032.072a3.745 3.745 0 0 1 .118.311c.006.018.013.035.018.053a4.048 4.048 0 0 1 .133.549h12.024V6.444c0-.375.312-.679.696-.679h10.059c.017 0 .07 0 .103-.06s.004-.103-.006-.116l-2.177-3.186a1.14 1.14 0 0 0-.943-.492H17.171a.38.38 0 0 0-.268.109l-1.151 1.123a1.782 1.782 0 0 1-1.252.506H2.519c-.621 0-1.127.493-1.127 1.099v17.417z"/>
    </symbol>
    <symbol id="icon-kitchenf" viewBox="0 0 32 32">
      <path stroke-linecap="round" stroke-linejoin="round" stroke-width="1.746" d="M25.051 19.879V4.364c-6.227 5.94-6.494 10.756-6.465 15.515h6.465zm0 0v7.758h-1.293v-3.879M10.828 5.657v21.98M6.95 5.657v3.879a3.882 3.882 0 0 0 3.879 3.879 3.882 3.882 0 0 0 3.879-3.879V5.657"/>
    </symbol>
    <symbol id="icon-showerf" viewBox="0 0 31 32">
      <path stroke-linecap="round" stroke-linejoin="round" stroke-width="1.939" d="m5.172 5.657 3.232 3.232m9.05 0a6.403 6.403 0 0 0-9.005.045 6.398 6.398 0 0 0-.045 9.005m10.99-10.99L6.465 19.878m11.636 2.587v.013m-5.172-1.306v.013m3.879-3.892v.013m3.879-3.892v.013m-6.465 12.916v.013m7.758-7.77v.013m3.879-3.892v.013"/>
    </symbol>
    <symbol id="icon-tvf" viewBox="0 0 31 32">
      <path stroke-linecap="round" stroke-linejoin="round" stroke-width="1.746" d="M23.273 25.697H7.758a3.87 3.87 0 0 1-3.879-3.879v-9.697a3.87 3.87 0 0 1 3.879-3.879h15.515a3.87 3.87 0 0 1 3.879 3.879v9.697a3.87 3.87 0 0 1-3.879 3.879zM11.636 29.576h7.758M15.515 8.242l5.818-5.818M15.515 8.242 9.697 2.424"/>
    </symbol>
    <symbol id="icon-van" viewBox="0 0 46 32">
      <path d="M2.608 1.8h12.409c.105 0 .203-.04.278-.112L16.487.525a1.845 1.845 0 0 1 1.297-.524h18.817c.876 0 1.69.425 2.176 1.136l2.255 3.3c.32.468.349 1.067.077 1.564s-.8.805-1.377.805h-9.698v.956h4.967c1.317 0 2.501.763 3.018 1.945l2.908 6.65 2.548.994c1.36.531 2.24 1.797 2.24 3.227v6.158c0 .918-.766 1.666-1.708 1.666h-2.964c-.345 2.039-2.164 3.599-4.35 3.599s-4.005-1.561-4.35-3.599H16.14c-.345 2.039-2.164 3.599-4.35 3.599s-4.005-1.561-4.35-3.599H1.519c-.837 0-1.518-.664-1.518-1.481V4.345c0-1.403 1.17-2.544 2.608-2.544zm34.084 28.794c1.637 0 2.969-1.299 2.969-2.896s-1.332-2.896-2.969-2.896c-1.637 0-2.969 1.299-2.969 2.896s1.332 2.896 2.969 2.896zm-6.658-3.599h2.307l.02-.105.014-.071c.012-.055.025-.11.039-.164.003-.011.005-.023.009-.034a3.34 3.34 0 0 1 .057-.195l.019-.056a5.274 5.274 0 0 1 .122-.321l.033-.075c.016-.037.032-.072.05-.108l.038-.075.054-.103.041-.074.059-.101.043-.071.066-.101.044-.065.077-.105.04-.055.109-.135.016-.02c.043-.051.087-.1.132-.148l.043-.044.096-.099.056-.053.09-.084.062-.054.09-.077.066-.052.093-.071a1.22 1.22 0 0 1 .069-.05l.097-.068.069-.046c.034-.023.069-.044.104-.065l.068-.041c.038-.023.077-.044.116-.065l.059-.033.168-.084.013-.006c.061-.029.123-.056.186-.082l.061-.024.13-.05.075-.026.12-.039.082-.024c.039-.011.078-.023.118-.033.028-.007.056-.015.085-.021l.118-.026.087-.018c.04-.007.081-.015.122-.021l.086-.014.128-.016.082-.009.143-.011.07-.005a3.893 3.893 0 0 1 .502.005c.048.003.096.006.143.011.028.002.055.006.082.009l.128.016c.029.004.058.008.087.014.041.006.081.014.122.021l.087.018a4.084 4.084 0 0 1 .321.08l.082.024.12.039.075.026.13.05.061.024c.062.026.125.053.186.082l.013.006c.057.027.112.055.168.084l.059.033.116.065.068.041.104.065.069.046c.033.023.065.044.097.068l.069.05.093.071.066.052c.031.025.061.051.09.077l.062.054.09.084.056.053.096.099.043.044c.045.048.089.098.132.148l.016.02c.037.044.073.089.109.135l.04.055.077.105.044.065.066.101.043.071.059.101.041.074.054.103.038.075.05.108c.011.025.023.049.033.075.017.038.032.077.047.116a2.087 2.087 0 0 1 .075.205l.019.056c.02.064.039.129.056.195l.009.034c.014.055.027.109.039.164l.014.071.02.105h2.963a.263.263 0 0 0 .266-.26v-2.946h-1.124v-1.406h1.124v-1.806c0-.851-.523-1.606-1.333-1.922l-2.697-1.052H30.031v9.392zm0-10.798h9.257l-2.598-5.939a1.84 1.84 0 0 0-1.692-1.09h-4.967v7.03zM11.789 30.594c1.637 0 2.969-1.299 2.969-2.896s-1.332-2.896-2.969-2.896c-.051 0-.102.001-.153.004-1.364.067-2.488 1.038-2.756 2.309a2.812 2.812 0 0 0-.061.583c0 1.597 1.332 2.896 2.969 2.896zM1.441 22.383h1.124v1.406H1.441v3.131c0 .041.035.075.077.075h5.92l.02-.104.014-.072c.012-.054.024-.107.038-.16l.009-.038a4.26 4.26 0 0 1 .056-.193l.02-.058.046-.132.028-.072.046-.114a2.049 2.049 0 0 1 .084-.182l.038-.076.054-.102.042-.074.059-.1a2.156 2.156 0 0 1 .11-.171 1.08 1.08 0 0 1 .044-.066l.076-.104.042-.057.106-.132a3.757 3.757 0 0 1 .15-.171l.043-.045c.032-.033.063-.066.096-.098l.056-.053.089-.083.062-.055c.029-.025.059-.051.09-.075l.066-.053.092-.071.069-.05.096-.067.07-.047c.034-.023.069-.044.103-.065l.069-.042c.038-.023.077-.044.116-.065.02-.011.04-.023.061-.033.055-.029.11-.057.167-.083l.014-.007c.061-.029.123-.056.186-.082l.061-.024.13-.05.076-.026c.039-.014.079-.027.119-.039l.082-.024c.039-.011.078-.023.118-.033.028-.007.056-.015.085-.021l.118-.026.087-.018c.04-.007.081-.015.122-.021l.086-.014.128-.016.082-.009.143-.011.07-.005a3.893 3.893 0 0 1 .502.005c.048.003.096.006.143.011.028.002.055.006.082.009l.128.016c.029.004.058.008.086.014.041.006.081.014.122.021l.087.018a4.084 4.084 0 0 1 .321.08l.082.024c.04.012.08.026.119.039l.076.026.13.05.061.024c.062.026.124.053.186.082l.014.007c.056.026.112.054.167.083l.06.033.116.065.069.042c.035.021.069.042.103.065l.07.047c.032.022.065.044.096.067l.069.05.092.071c.023.017.044.035.066.053.031.025.061.05.09.076l.062.054.09.084.056.053.096.098.043.044c.045.048.089.098.132.148l.017.021c.036.044.073.088.107.134l.042.055.077.105.044.066c.023.033.044.066.066.1l.044.071.059.101.041.074.055.103a2.6 2.6 0 0 1 .087.183 2.343 2.343 0 0 1 .08.191l.028.071c.017.045.032.09.047.135l.019.055c.02.064.039.129.057.195l.007.031c.014.056.028.111.04.168l.013.069.021.106h12.453V6.106c0-.388.323-.703.721-.703h10.419c.018 0 .073 0 .107-.062s.004-.106-.006-.12l-2.255-3.3a1.18 1.18 0 0 0-.977-.51H17.784a.397.397 0 0 0-.278.112l-1.192 1.163a1.845 1.845 0 0 1-1.297.524H2.608c-.643 0-1.167.511-1.167 1.138v18.039z"/>
      <path d="M5.536 7.198h8.814c1.019 0 1.848.809 1.848 1.802v4.1c0 .994-.829 1.802-1.848 1.802H5.535c-1.019 0-1.848-.809-1.848-1.802V9c.001-.994.83-1.802 1.848-1.802zM5.129 13.1c0 .218.182.396.406.396h8.814a.402.402 0 0 0 .406-.396V9a.402.402 0 0 0-.406-.396H5.534A.402.402 0 0 0 5.128 9l.001 4.1z"/>
    </symbol>
  </defs>
</svg>



